<?xml version="1.0" encoding="utf-8" standalone="no"?>
<!DOCTYPE svg PUBLIC "-//W3C//DTD SVG 1.1//EN"
  "http://www.w3.org/Graphics/SVG/1.1/DTD/svg11.dtd">
<!-- Created with matplotlib (https://matplotlib.org/) -->
<svg height="558.233438pt" version="1.1" viewBox="0 0 579.358437 558.233438" width="579.358437pt" xmlns="http://www.w3.org/2000/svg" xmlns:xlink="http://www.w3.org/1999/xlink">
 <metadata>
  <rdf:RDF xmlns:cc="http://creativecommons.org/ns#" xmlns:dc="http://purl.org/dc/elements/1.1/" xmlns:rdf="http://www.w3.org/1999/02/22-rdf-syntax-ns#">
   <cc:Work>
    <dc:type rdf:resource="http://purl.org/dc/dcmitype/StillImage"/>
    <dc:date>2023-04-09T11:14:58.296780</dc:date>
    <dc:format>image/svg+xml</dc:format>
    <dc:creator>
     <cc:Agent>
      <dc:title>Matplotlib v3.3.4, https://matplotlib.org/</dc:title>
     </cc:Agent>
    </dc:creator>
   </cc:Work>
  </rdf:RDF>
 </metadata>
 <defs>
  <style type="text/css">*{stroke-linecap:butt;stroke-linejoin:round;}</style>
 </defs>
 <g id="figure_1">
  <g id="patch_1">
   <path d="M -0 558.233438 
L 579.358437 558.233438 
L 579.358437 0 
L -0 0 
z
" style="fill:#ffffff;"/>
  </g>
  <g id="axes_1">
   <g id="patch_2">
    <path d="M 73.198438 506.16 
L 572.158437 506.16 
L 572.158437 7.2 
L 73.198438 7.2 
z
" style="fill:#ffffff;"/>
   </g>
   <g id="patch_3">
    <path clip-path="url(#p6bb292c7eb)" d="M 200.206438 506.16 
L 218.350438 506.16 
L 218.350438 7.2 
L 200.206438 7.2 
z
" style="fill:#80cdc1;"/>
   </g>
   <g id="patch_4">
    <path clip-path="url(#p6bb292c7eb)" d="M 427.006438 506.16 
L 445.150438 506.16 
L 445.150438 7.2 
L 427.006438 7.2 
z
" style="fill:#80cdc1;"/>
   </g>
   <g id="matplotlib.axis_1">
    <g id="xtick_1">
     <g id="line2d_1">
      <path clip-path="url(#p6bb292c7eb)" d="M 106.094003 506.16 
L 106.094003 7.2 
" style="fill:none;stroke:#000000;stroke-linecap:square;stroke-opacity:0.1;stroke-width:0.5;"/>
     </g>
     <g id="line2d_2">
      <defs>
       <path d="M 0 0 
L 0 3.5 
" id="m8ece6e8909" style="stroke:#000000;stroke-width:0.8;"/>
      </defs>
      <g>
       <use style="stroke:#000000;stroke-width:0.8;" x="106.094003" xlink:href="#m8ece6e8909" y="506.16"/>
      </g>
     </g>
     <g id="text_1">
      <!-- −3 -->
      <g transform="translate(95.037363 524.557656)scale(0.15 -0.15)">
       <defs>
        <path d="M 10.59375 35.5 
L 73.1875 35.5 
L 73.1875 27.203125 
L 10.59375 27.203125 
z
" id="DejaVuSans-8722"/>
        <path d="M 40.578125 39.3125 
Q 47.65625 37.796875 51.625 33 
Q 55.609375 28.21875 55.609375 21.1875 
Q 55.609375 10.40625 48.1875 4.484375 
Q 40.765625 -1.421875 27.09375 -1.421875 
Q 22.515625 -1.421875 17.65625 -0.515625 
Q 12.796875 0.390625 7.625 2.203125 
L 7.625 11.71875 
Q 11.71875 9.328125 16.59375 8.109375 
Q 21.484375 6.890625 26.8125 6.890625 
Q 36.078125 6.890625 40.9375 10.546875 
Q 45.796875 14.203125 45.796875 21.1875 
Q 45.796875 27.640625 41.28125 31.265625 
Q 36.765625 34.90625 28.71875 34.90625 
L 20.21875 34.90625 
L 20.21875 43.015625 
L 29.109375 43.015625 
Q 36.375 43.015625 40.234375 45.921875 
Q 44.09375 48.828125 44.09375 54.296875 
Q 44.09375 59.90625 40.109375 62.90625 
Q 36.140625 65.921875 28.71875 65.921875 
Q 24.65625 65.921875 20.015625 65.03125 
Q 15.375 64.15625 9.8125 62.3125 
L 9.8125 71.09375 
Q 15.4375 72.65625 20.34375 73.4375 
Q 25.25 74.21875 29.59375 74.21875 
Q 40.828125 74.21875 47.359375 69.109375 
Q 53.90625 64.015625 53.90625 55.328125 
Q 53.90625 49.265625 50.4375 45.09375 
Q 46.96875 40.921875 40.578125 39.3125 
z
" id="DejaVuSans-51"/>
       </defs>
       <use xlink:href="#DejaVuSans-8722"/>
       <use x="83.789062" xlink:href="#DejaVuSans-51"/>
      </g>
     </g>
    </g>
    <g id="xtick_2">
     <g id="line2d_3">
      <path clip-path="url(#p6bb292c7eb)" d="M 178.288815 506.16 
L 178.288815 7.2 
" style="fill:none;stroke:#000000;stroke-linecap:square;stroke-opacity:0.1;stroke-width:0.5;"/>
     </g>
     <g id="line2d_4">
      <g>
       <use style="stroke:#000000;stroke-width:0.8;" x="178.288815" xlink:href="#m8ece6e8909" y="506.16"/>
      </g>
     </g>
     <g id="text_2">
      <!-- −2 -->
      <g transform="translate(167.232174 524.557656)scale(0.15 -0.15)">
       <defs>
        <path d="M 19.1875 8.296875 
L 53.609375 8.296875 
L 53.609375 0 
L 7.328125 0 
L 7.328125 8.296875 
Q 12.9375 14.109375 22.625 23.890625 
Q 32.328125 33.6875 34.8125 36.53125 
Q 39.546875 41.84375 41.421875 45.53125 
Q 43.3125 49.21875 43.3125 52.78125 
Q 43.3125 58.59375 39.234375 62.25 
Q 35.15625 65.921875 28.609375 65.921875 
Q 23.96875 65.921875 18.8125 64.3125 
Q 13.671875 62.703125 7.8125 59.421875 
L 7.8125 69.390625 
Q 13.765625 71.78125 18.9375 73 
Q 24.125 74.21875 28.421875 74.21875 
Q 39.75 74.21875 46.484375 68.546875 
Q 53.21875 62.890625 53.21875 53.421875 
Q 53.21875 48.921875 51.53125 44.890625 
Q 49.859375 40.875 45.40625 35.40625 
Q 44.1875 33.984375 37.640625 27.21875 
Q 31.109375 20.453125 19.1875 8.296875 
z
" id="DejaVuSans-50"/>
       </defs>
       <use xlink:href="#DejaVuSans-8722"/>
       <use x="83.789062" xlink:href="#DejaVuSans-50"/>
      </g>
     </g>
    </g>
    <g id="xtick_3">
     <g id="line2d_5">
      <path clip-path="url(#p6bb292c7eb)" d="M 250.483626 506.16 
L 250.483626 7.2 
" style="fill:none;stroke:#000000;stroke-linecap:square;stroke-opacity:0.1;stroke-width:0.5;"/>
     </g>
     <g id="line2d_6">
      <g>
       <use style="stroke:#000000;stroke-width:0.8;" x="250.483626" xlink:href="#m8ece6e8909" y="506.16"/>
      </g>
     </g>
     <g id="text_3">
      <!-- −1 -->
      <g transform="translate(239.426985 524.557656)scale(0.15 -0.15)">
       <defs>
        <path d="M 12.40625 8.296875 
L 28.515625 8.296875 
L 28.515625 63.921875 
L 10.984375 60.40625 
L 10.984375 69.390625 
L 28.421875 72.90625 
L 38.28125 72.90625 
L 38.28125 8.296875 
L 54.390625 8.296875 
L 54.390625 0 
L 12.40625 0 
z
" id="DejaVuSans-49"/>
       </defs>
       <use xlink:href="#DejaVuSans-8722"/>
       <use x="83.789062" xlink:href="#DejaVuSans-49"/>
      </g>
     </g>
    </g>
    <g id="xtick_4">
     <g id="line2d_7">
      <path clip-path="url(#p6bb292c7eb)" d="M 322.678438 506.16 
L 322.678438 7.2 
" style="fill:none;stroke:#000000;stroke-linecap:square;stroke-opacity:0.1;stroke-width:0.5;"/>
     </g>
     <g id="line2d_8">
      <g>
       <use style="stroke:#000000;stroke-width:0.8;" x="322.678438" xlink:href="#m8ece6e8909" y="506.16"/>
      </g>
     </g>
     <g id="text_4">
      <!-- 0 -->
      <g transform="translate(317.906563 524.557656)scale(0.15 -0.15)">
       <defs>
        <path d="M 31.78125 66.40625 
Q 24.171875 66.40625 20.328125 58.90625 
Q 16.5 51.421875 16.5 36.375 
Q 16.5 21.390625 20.328125 13.890625 
Q 24.171875 6.390625 31.78125 6.390625 
Q 39.453125 6.390625 43.28125 13.890625 
Q 47.125 21.390625 47.125 36.375 
Q 47.125 51.421875 43.28125 58.90625 
Q 39.453125 66.40625 31.78125 66.40625 
z
M 31.78125 74.21875 
Q 44.046875 74.21875 50.515625 64.515625 
Q 56.984375 54.828125 56.984375 36.375 
Q 56.984375 17.96875 50.515625 8.265625 
Q 44.046875 -1.421875 31.78125 -1.421875 
Q 19.53125 -1.421875 13.0625 8.265625 
Q 6.59375 17.96875 6.59375 36.375 
Q 6.59375 54.828125 13.0625 64.515625 
Q 19.53125 74.21875 31.78125 74.21875 
z
" id="DejaVuSans-48"/>
       </defs>
       <use xlink:href="#DejaVuSans-48"/>
      </g>
     </g>
    </g>
    <g id="xtick_5">
     <g id="line2d_9">
      <path clip-path="url(#p6bb292c7eb)" d="M 394.873249 506.16 
L 394.873249 7.2 
" style="fill:none;stroke:#000000;stroke-linecap:square;stroke-opacity:0.1;stroke-width:0.5;"/>
     </g>
     <g id="line2d_10">
      <g>
       <use style="stroke:#000000;stroke-width:0.8;" x="394.873249" xlink:href="#m8ece6e8909" y="506.16"/>
      </g>
     </g>
     <g id="text_5">
      <!-- 1 -->
      <g transform="translate(390.101374 524.557656)scale(0.15 -0.15)">
       <use xlink:href="#DejaVuSans-49"/>
      </g>
     </g>
    </g>
    <g id="xtick_6">
     <g id="line2d_11">
      <path clip-path="url(#p6bb292c7eb)" d="M 467.06806 506.16 
L 467.06806 7.2 
" style="fill:none;stroke:#000000;stroke-linecap:square;stroke-opacity:0.1;stroke-width:0.5;"/>
     </g>
     <g id="line2d_12">
      <g>
       <use style="stroke:#000000;stroke-width:0.8;" x="467.06806" xlink:href="#m8ece6e8909" y="506.16"/>
      </g>
     </g>
     <g id="text_6">
      <!-- 2 -->
      <g transform="translate(462.296185 524.557656)scale(0.15 -0.15)">
       <use xlink:href="#DejaVuSans-50"/>
      </g>
     </g>
    </g>
    <g id="xtick_7">
     <g id="line2d_13">
      <path clip-path="url(#p6bb292c7eb)" d="M 539.262872 506.16 
L 539.262872 7.2 
" style="fill:none;stroke:#000000;stroke-linecap:square;stroke-opacity:0.1;stroke-width:0.5;"/>
     </g>
     <g id="line2d_14">
      <g>
       <use style="stroke:#000000;stroke-width:0.8;" x="539.262872" xlink:href="#m8ece6e8909" y="506.16"/>
      </g>
     </g>
     <g id="text_7">
      <!-- 3 -->
      <g transform="translate(534.490997 524.557656)scale(0.15 -0.15)">
       <use xlink:href="#DejaVuSans-51"/>
      </g>
     </g>
    </g>
    <g id="text_8">
     <!-- Off-Resonance $\omega$ / (rad/s/TE) -->
     <g transform="translate(179.178438 546.874063)scale(0.2 -0.2)">
      <defs>
       <path d="M 39.40625 66.21875 
Q 28.65625 66.21875 22.328125 58.203125 
Q 16.015625 50.203125 16.015625 36.375 
Q 16.015625 22.609375 22.328125 14.59375 
Q 28.65625 6.59375 39.40625 6.59375 
Q 50.140625 6.59375 56.421875 14.59375 
Q 62.703125 22.609375 62.703125 36.375 
Q 62.703125 50.203125 56.421875 58.203125 
Q 50.140625 66.21875 39.40625 66.21875 
z
M 39.40625 74.21875 
Q 54.734375 74.21875 63.90625 63.9375 
Q 73.09375 53.65625 73.09375 36.375 
Q 73.09375 19.140625 63.90625 8.859375 
Q 54.734375 -1.421875 39.40625 -1.421875 
Q 24.03125 -1.421875 14.8125 8.828125 
Q 5.609375 19.09375 5.609375 36.375 
Q 5.609375 53.65625 14.8125 63.9375 
Q 24.03125 74.21875 39.40625 74.21875 
z
" id="DejaVuSans-79"/>
       <path d="M 37.109375 75.984375 
L 37.109375 68.5 
L 28.515625 68.5 
Q 23.6875 68.5 21.796875 66.546875 
Q 19.921875 64.59375 19.921875 59.515625 
L 19.921875 54.6875 
L 34.71875 54.6875 
L 34.71875 47.703125 
L 19.921875 47.703125 
L 19.921875 0 
L 10.890625 0 
L 10.890625 47.703125 
L 2.296875 47.703125 
L 2.296875 54.6875 
L 10.890625 54.6875 
L 10.890625 58.5 
Q 10.890625 67.625 15.140625 71.796875 
Q 19.390625 75.984375 28.609375 75.984375 
z
" id="DejaVuSans-102"/>
       <path d="M 4.890625 31.390625 
L 31.203125 31.390625 
L 31.203125 23.390625 
L 4.890625 23.390625 
z
" id="DejaVuSans-45"/>
       <path d="M 44.390625 34.1875 
Q 47.5625 33.109375 50.5625 29.59375 
Q 53.5625 26.078125 56.59375 19.921875 
L 66.609375 0 
L 56 0 
L 46.6875 18.703125 
Q 43.0625 26.03125 39.671875 28.421875 
Q 36.28125 30.8125 30.421875 30.8125 
L 19.671875 30.8125 
L 19.671875 0 
L 9.8125 0 
L 9.8125 72.90625 
L 32.078125 72.90625 
Q 44.578125 72.90625 50.734375 67.671875 
Q 56.890625 62.453125 56.890625 51.90625 
Q 56.890625 45.015625 53.6875 40.46875 
Q 50.484375 35.9375 44.390625 34.1875 
z
M 19.671875 64.796875 
L 19.671875 38.921875 
L 32.078125 38.921875 
Q 39.203125 38.921875 42.84375 42.21875 
Q 46.484375 45.515625 46.484375 51.90625 
Q 46.484375 58.296875 42.84375 61.546875 
Q 39.203125 64.796875 32.078125 64.796875 
z
" id="DejaVuSans-82"/>
       <path d="M 56.203125 29.59375 
L 56.203125 25.203125 
L 14.890625 25.203125 
Q 15.484375 15.921875 20.484375 11.0625 
Q 25.484375 6.203125 34.421875 6.203125 
Q 39.59375 6.203125 44.453125 7.46875 
Q 49.3125 8.734375 54.109375 11.28125 
L 54.109375 2.78125 
Q 49.265625 0.734375 44.1875 -0.34375 
Q 39.109375 -1.421875 33.890625 -1.421875 
Q 20.796875 -1.421875 13.15625 6.1875 
Q 5.515625 13.8125 5.515625 26.8125 
Q 5.515625 40.234375 12.765625 48.109375 
Q 20.015625 56 32.328125 56 
Q 43.359375 56 49.78125 48.890625 
Q 56.203125 41.796875 56.203125 29.59375 
z
M 47.21875 32.234375 
Q 47.125 39.59375 43.09375 43.984375 
Q 39.0625 48.390625 32.421875 48.390625 
Q 24.90625 48.390625 20.390625 44.140625 
Q 15.875 39.890625 15.1875 32.171875 
z
" id="DejaVuSans-101"/>
       <path d="M 44.28125 53.078125 
L 44.28125 44.578125 
Q 40.484375 46.53125 36.375 47.5 
Q 32.28125 48.484375 27.875 48.484375 
Q 21.1875 48.484375 17.84375 46.4375 
Q 14.5 44.390625 14.5 40.28125 
Q 14.5 37.15625 16.890625 35.375 
Q 19.28125 33.59375 26.515625 31.984375 
L 29.59375 31.296875 
Q 39.15625 29.25 43.1875 25.515625 
Q 47.21875 21.78125 47.21875 15.09375 
Q 47.21875 7.46875 41.1875 3.015625 
Q 35.15625 -1.421875 24.609375 -1.421875 
Q 20.21875 -1.421875 15.453125 -0.5625 
Q 10.6875 0.296875 5.421875 2 
L 5.421875 11.28125 
Q 10.40625 8.6875 15.234375 7.390625 
Q 20.0625 6.109375 24.8125 6.109375 
Q 31.15625 6.109375 34.5625 8.28125 
Q 37.984375 10.453125 37.984375 14.40625 
Q 37.984375 18.0625 35.515625 20.015625 
Q 33.0625 21.96875 24.703125 23.78125 
L 21.578125 24.515625 
Q 13.234375 26.265625 9.515625 29.90625 
Q 5.8125 33.546875 5.8125 39.890625 
Q 5.8125 47.609375 11.28125 51.796875 
Q 16.75 56 26.8125 56 
Q 31.78125 56 36.171875 55.265625 
Q 40.578125 54.546875 44.28125 53.078125 
z
" id="DejaVuSans-115"/>
       <path d="M 30.609375 48.390625 
Q 23.390625 48.390625 19.1875 42.75 
Q 14.984375 37.109375 14.984375 27.296875 
Q 14.984375 17.484375 19.15625 11.84375 
Q 23.34375 6.203125 30.609375 6.203125 
Q 37.796875 6.203125 41.984375 11.859375 
Q 46.1875 17.53125 46.1875 27.296875 
Q 46.1875 37.015625 41.984375 42.703125 
Q 37.796875 48.390625 30.609375 48.390625 
z
M 30.609375 56 
Q 42.328125 56 49.015625 48.375 
Q 55.71875 40.765625 55.71875 27.296875 
Q 55.71875 13.875 49.015625 6.21875 
Q 42.328125 -1.421875 30.609375 -1.421875 
Q 18.84375 -1.421875 12.171875 6.21875 
Q 5.515625 13.875 5.515625 27.296875 
Q 5.515625 40.765625 12.171875 48.375 
Q 18.84375 56 30.609375 56 
z
" id="DejaVuSans-111"/>
       <path d="M 54.890625 33.015625 
L 54.890625 0 
L 45.90625 0 
L 45.90625 32.71875 
Q 45.90625 40.484375 42.875 44.328125 
Q 39.84375 48.1875 33.796875 48.1875 
Q 26.515625 48.1875 22.3125 43.546875 
Q 18.109375 38.921875 18.109375 30.90625 
L 18.109375 0 
L 9.078125 0 
L 9.078125 54.6875 
L 18.109375 54.6875 
L 18.109375 46.1875 
Q 21.34375 51.125 25.703125 53.5625 
Q 30.078125 56 35.796875 56 
Q 45.21875 56 50.046875 50.171875 
Q 54.890625 44.34375 54.890625 33.015625 
z
" id="DejaVuSans-110"/>
       <path d="M 34.28125 27.484375 
Q 23.390625 27.484375 19.1875 25 
Q 14.984375 22.515625 14.984375 16.5 
Q 14.984375 11.71875 18.140625 8.90625 
Q 21.296875 6.109375 26.703125 6.109375 
Q 34.1875 6.109375 38.703125 11.40625 
Q 43.21875 16.703125 43.21875 25.484375 
L 43.21875 27.484375 
z
M 52.203125 31.203125 
L 52.203125 0 
L 43.21875 0 
L 43.21875 8.296875 
Q 40.140625 3.328125 35.546875 0.953125 
Q 30.953125 -1.421875 24.3125 -1.421875 
Q 15.921875 -1.421875 10.953125 3.296875 
Q 6 8.015625 6 15.921875 
Q 6 25.140625 12.171875 29.828125 
Q 18.359375 34.515625 30.609375 34.515625 
L 43.21875 34.515625 
L 43.21875 35.40625 
Q 43.21875 41.609375 39.140625 45 
Q 35.0625 48.390625 27.6875 48.390625 
Q 23 48.390625 18.546875 47.265625 
Q 14.109375 46.140625 10.015625 43.890625 
L 10.015625 52.203125 
Q 14.9375 54.109375 19.578125 55.046875 
Q 24.21875 56 28.609375 56 
Q 40.484375 56 46.34375 49.84375 
Q 52.203125 43.703125 52.203125 31.203125 
z
" id="DejaVuSans-97"/>
       <path d="M 48.78125 52.59375 
L 48.78125 44.1875 
Q 44.96875 46.296875 41.140625 47.34375 
Q 37.3125 48.390625 33.40625 48.390625 
Q 24.65625 48.390625 19.8125 42.84375 
Q 14.984375 37.3125 14.984375 27.296875 
Q 14.984375 17.28125 19.8125 11.734375 
Q 24.65625 6.203125 33.40625 6.203125 
Q 37.3125 6.203125 41.140625 7.25 
Q 44.96875 8.296875 48.78125 10.40625 
L 48.78125 2.09375 
Q 45.015625 0.34375 40.984375 -0.53125 
Q 36.96875 -1.421875 32.421875 -1.421875 
Q 20.0625 -1.421875 12.78125 6.34375 
Q 5.515625 14.109375 5.515625 27.296875 
Q 5.515625 40.671875 12.859375 48.328125 
Q 20.21875 56 33.015625 56 
Q 37.15625 56 41.109375 55.140625 
Q 45.0625 54.296875 48.78125 52.59375 
z
" id="DejaVuSans-99"/>
       <path id="DejaVuSans-32"/>
       <path d="M 21.390625 -1.421875 
Q 1.125 -1.421875 6.78125 27.59375 
Q 8.984375 39.0625 19.625 54.6875 
L 29.296875 54.6875 
Q 19.234375 39.0625 17 27.34375 
Q 12.796875 6.203125 23.734375 6.203125 
Q 33.84375 6.203125 38.71875 32.46875 
L 47.015625 32.46875 
Q 41.703125 6.0625 51.8125 6.203125 
Q 62.703125 6.296875 66.796875 27.34375 
Q 69.046875 39.0625 65.140625 54.6875 
L 74.8125 54.6875 
Q 79.296875 39.0625 77.09375 27.59375 
Q 71.53125 -1.46875 51.21875 -1.421875 
Q 37.9375 -1.375 39.109375 13.1875 
Q 34.28125 -1.421875 21.390625 -1.421875 
z
" id="DejaVuSans-Oblique-969"/>
       <path d="M 25.390625 72.90625 
L 33.6875 72.90625 
L 8.296875 -9.28125 
L 0 -9.28125 
z
" id="DejaVuSans-47"/>
       <path d="M 31 75.875 
Q 24.46875 64.65625 21.28125 53.65625 
Q 18.109375 42.671875 18.109375 31.390625 
Q 18.109375 20.125 21.3125 9.0625 
Q 24.515625 -2 31 -13.1875 
L 23.1875 -13.1875 
Q 15.875 -1.703125 12.234375 9.375 
Q 8.59375 20.453125 8.59375 31.390625 
Q 8.59375 42.28125 12.203125 53.3125 
Q 15.828125 64.359375 23.1875 75.875 
z
" id="DejaVuSans-40"/>
       <path d="M 41.109375 46.296875 
Q 39.59375 47.171875 37.8125 47.578125 
Q 36.03125 48 33.890625 48 
Q 26.265625 48 22.1875 43.046875 
Q 18.109375 38.09375 18.109375 28.8125 
L 18.109375 0 
L 9.078125 0 
L 9.078125 54.6875 
L 18.109375 54.6875 
L 18.109375 46.1875 
Q 20.953125 51.171875 25.484375 53.578125 
Q 30.03125 56 36.53125 56 
Q 37.453125 56 38.578125 55.875 
Q 39.703125 55.765625 41.0625 55.515625 
z
" id="DejaVuSans-114"/>
       <path d="M 45.40625 46.390625 
L 45.40625 75.984375 
L 54.390625 75.984375 
L 54.390625 0 
L 45.40625 0 
L 45.40625 8.203125 
Q 42.578125 3.328125 38.25 0.953125 
Q 33.9375 -1.421875 27.875 -1.421875 
Q 17.96875 -1.421875 11.734375 6.484375 
Q 5.515625 14.40625 5.515625 27.296875 
Q 5.515625 40.1875 11.734375 48.09375 
Q 17.96875 56 27.875 56 
Q 33.9375 56 38.25 53.625 
Q 42.578125 51.265625 45.40625 46.390625 
z
M 14.796875 27.296875 
Q 14.796875 17.390625 18.875 11.75 
Q 22.953125 6.109375 30.078125 6.109375 
Q 37.203125 6.109375 41.296875 11.75 
Q 45.40625 17.390625 45.40625 27.296875 
Q 45.40625 37.203125 41.296875 42.84375 
Q 37.203125 48.484375 30.078125 48.484375 
Q 22.953125 48.484375 18.875 42.84375 
Q 14.796875 37.203125 14.796875 27.296875 
z
" id="DejaVuSans-100"/>
       <path d="M -0.296875 72.90625 
L 61.375 72.90625 
L 61.375 64.59375 
L 35.5 64.59375 
L 35.5 0 
L 25.59375 0 
L 25.59375 64.59375 
L -0.296875 64.59375 
z
" id="DejaVuSans-84"/>
       <path d="M 9.8125 72.90625 
L 55.90625 72.90625 
L 55.90625 64.59375 
L 19.671875 64.59375 
L 19.671875 43.015625 
L 54.390625 43.015625 
L 54.390625 34.71875 
L 19.671875 34.71875 
L 19.671875 8.296875 
L 56.78125 8.296875 
L 56.78125 0 
L 9.8125 0 
z
" id="DejaVuSans-69"/>
       <path d="M 8.015625 75.875 
L 15.828125 75.875 
Q 23.140625 64.359375 26.78125 53.3125 
Q 30.421875 42.28125 30.421875 31.390625 
Q 30.421875 20.453125 26.78125 9.375 
Q 23.140625 -1.703125 15.828125 -13.1875 
L 8.015625 -13.1875 
Q 14.5 -2 17.703125 9.0625 
Q 20.90625 20.125 20.90625 31.390625 
Q 20.90625 42.671875 17.703125 53.65625 
Q 14.5 64.65625 8.015625 75.875 
z
" id="DejaVuSans-41"/>
      </defs>
      <use transform="translate(0 0.015625)" xlink:href="#DejaVuSans-79"/>
      <use transform="translate(78.710938 0.015625)" xlink:href="#DejaVuSans-102"/>
      <use transform="translate(113.916016 0.015625)" xlink:href="#DejaVuSans-102"/>
      <use transform="translate(149.121094 0.015625)" xlink:href="#DejaVuSans-45"/>
      <use transform="translate(185.205078 0.015625)" xlink:href="#DejaVuSans-82"/>
      <use transform="translate(254.6875 0.015625)" xlink:href="#DejaVuSans-101"/>
      <use transform="translate(316.210938 0.015625)" xlink:href="#DejaVuSans-115"/>
      <use transform="translate(368.310547 0.015625)" xlink:href="#DejaVuSans-111"/>
      <use transform="translate(429.492188 0.015625)" xlink:href="#DejaVuSans-110"/>
      <use transform="translate(492.871094 0.015625)" xlink:href="#DejaVuSans-97"/>
      <use transform="translate(554.150391 0.015625)" xlink:href="#DejaVuSans-110"/>
      <use transform="translate(617.529297 0.015625)" xlink:href="#DejaVuSans-99"/>
      <use transform="translate(672.509766 0.015625)" xlink:href="#DejaVuSans-101"/>
      <use transform="translate(734.033203 0.015625)" xlink:href="#DejaVuSans-32"/>
      <use transform="translate(765.820312 0.015625)" xlink:href="#DejaVuSans-Oblique-969"/>
      <use transform="translate(849.560547 0.015625)" xlink:href="#DejaVuSans-32"/>
      <use transform="translate(881.347656 0.015625)" xlink:href="#DejaVuSans-47"/>
      <use transform="translate(915.039062 0.015625)" xlink:href="#DejaVuSans-32"/>
      <use transform="translate(946.826172 0.015625)" xlink:href="#DejaVuSans-40"/>
      <use transform="translate(985.839844 0.015625)" xlink:href="#DejaVuSans-114"/>
      <use transform="translate(1026.953125 0.015625)" xlink:href="#DejaVuSans-97"/>
      <use transform="translate(1088.232422 0.015625)" xlink:href="#DejaVuSans-100"/>
      <use transform="translate(1151.708984 0.015625)" xlink:href="#DejaVuSans-47"/>
      <use transform="translate(1185.400391 0.015625)" xlink:href="#DejaVuSans-115"/>
      <use transform="translate(1237.5 0.015625)" xlink:href="#DejaVuSans-47"/>
      <use transform="translate(1271.191406 0.015625)" xlink:href="#DejaVuSans-84"/>
      <use transform="translate(1332.275391 0.015625)" xlink:href="#DejaVuSans-69"/>
      <use transform="translate(1395.458984 0.015625)" xlink:href="#DejaVuSans-41"/>
     </g>
    </g>
   </g>
   <g id="matplotlib.axis_2">
    <g id="ytick_1">
     <g id="line2d_15">
      <path clip-path="url(#p6bb292c7eb)" d="M 73.198438 506.16 
L 572.158437 506.16 
" style="fill:none;stroke:#000000;stroke-linecap:square;stroke-opacity:0.1;stroke-width:0.5;"/>
     </g>
     <g id="line2d_16">
      <defs>
       <path d="M 0 0 
L -3.5 0 
" id="m0a6ae03f04" style="stroke:#000000;stroke-width:0.8;"/>
      </defs>
      <g>
       <use style="stroke:#000000;stroke-width:0.8;" x="73.198438" xlink:href="#m0a6ae03f04" y="506.16"/>
      </g>
     </g>
     <g id="text_9">
      <!-- 0.00 -->
      <g transform="translate(32.8 511.858828)scale(0.15 -0.15)">
       <defs>
        <path d="M 10.6875 12.40625 
L 21 12.40625 
L 21 0 
L 10.6875 0 
z
" id="DejaVuSans-46"/>
       </defs>
       <use xlink:href="#DejaVuSans-48"/>
       <use x="63.623047" xlink:href="#DejaVuSans-46"/>
       <use x="95.410156" xlink:href="#DejaVuSans-48"/>
       <use x="159.033203" xlink:href="#DejaVuSans-48"/>
      </g>
     </g>
    </g>
    <g id="ytick_2">
     <g id="line2d_17">
      <path clip-path="url(#p6bb292c7eb)" d="M 73.198438 447.611808 
L 572.158437 447.611808 
" style="fill:none;stroke:#000000;stroke-linecap:square;stroke-opacity:0.1;stroke-width:0.5;"/>
     </g>
     <g id="line2d_18">
      <g>
       <use style="stroke:#000000;stroke-width:0.8;" x="73.198438" xlink:href="#m0a6ae03f04" y="447.611808"/>
      </g>
     </g>
     <g id="text_10">
      <!-- 0.02 -->
      <g transform="translate(32.8 453.310636)scale(0.15 -0.15)">
       <use xlink:href="#DejaVuSans-48"/>
       <use x="63.623047" xlink:href="#DejaVuSans-46"/>
       <use x="95.410156" xlink:href="#DejaVuSans-48"/>
       <use x="159.033203" xlink:href="#DejaVuSans-50"/>
      </g>
     </g>
    </g>
    <g id="ytick_3">
     <g id="line2d_19">
      <path clip-path="url(#p6bb292c7eb)" d="M 73.198438 389.063617 
L 572.158437 389.063617 
" style="fill:none;stroke:#000000;stroke-linecap:square;stroke-opacity:0.1;stroke-width:0.5;"/>
     </g>
     <g id="line2d_20">
      <g>
       <use style="stroke:#000000;stroke-width:0.8;" x="73.198438" xlink:href="#m0a6ae03f04" y="389.063617"/>
      </g>
     </g>
     <g id="text_11">
      <!-- 0.04 -->
      <g transform="translate(32.8 394.762445)scale(0.15 -0.15)">
       <defs>
        <path d="M 37.796875 64.3125 
L 12.890625 25.390625 
L 37.796875 25.390625 
z
M 35.203125 72.90625 
L 47.609375 72.90625 
L 47.609375 25.390625 
L 58.015625 25.390625 
L 58.015625 17.1875 
L 47.609375 17.1875 
L 47.609375 0 
L 37.796875 0 
L 37.796875 17.1875 
L 4.890625 17.1875 
L 4.890625 26.703125 
z
" id="DejaVuSans-52"/>
       </defs>
       <use xlink:href="#DejaVuSans-48"/>
       <use x="63.623047" xlink:href="#DejaVuSans-46"/>
       <use x="95.410156" xlink:href="#DejaVuSans-48"/>
       <use x="159.033203" xlink:href="#DejaVuSans-52"/>
      </g>
     </g>
    </g>
    <g id="ytick_4">
     <g id="line2d_21">
      <path clip-path="url(#p6bb292c7eb)" d="M 73.198438 330.515425 
L 572.158437 330.515425 
" style="fill:none;stroke:#000000;stroke-linecap:square;stroke-opacity:0.1;stroke-width:0.5;"/>
     </g>
     <g id="line2d_22">
      <g>
       <use style="stroke:#000000;stroke-width:0.8;" x="73.198438" xlink:href="#m0a6ae03f04" y="330.515425"/>
      </g>
     </g>
     <g id="text_12">
      <!-- 0.06 -->
      <g transform="translate(32.8 336.214253)scale(0.15 -0.15)">
       <defs>
        <path d="M 33.015625 40.375 
Q 26.375 40.375 22.484375 35.828125 
Q 18.609375 31.296875 18.609375 23.390625 
Q 18.609375 15.53125 22.484375 10.953125 
Q 26.375 6.390625 33.015625 6.390625 
Q 39.65625 6.390625 43.53125 10.953125 
Q 47.40625 15.53125 47.40625 23.390625 
Q 47.40625 31.296875 43.53125 35.828125 
Q 39.65625 40.375 33.015625 40.375 
z
M 52.59375 71.296875 
L 52.59375 62.3125 
Q 48.875 64.0625 45.09375 64.984375 
Q 41.3125 65.921875 37.59375 65.921875 
Q 27.828125 65.921875 22.671875 59.328125 
Q 17.53125 52.734375 16.796875 39.40625 
Q 19.671875 43.65625 24.015625 45.921875 
Q 28.375 48.1875 33.59375 48.1875 
Q 44.578125 48.1875 50.953125 41.515625 
Q 57.328125 34.859375 57.328125 23.390625 
Q 57.328125 12.15625 50.6875 5.359375 
Q 44.046875 -1.421875 33.015625 -1.421875 
Q 20.359375 -1.421875 13.671875 8.265625 
Q 6.984375 17.96875 6.984375 36.375 
Q 6.984375 53.65625 15.1875 63.9375 
Q 23.390625 74.21875 37.203125 74.21875 
Q 40.921875 74.21875 44.703125 73.484375 
Q 48.484375 72.75 52.59375 71.296875 
z
" id="DejaVuSans-54"/>
       </defs>
       <use xlink:href="#DejaVuSans-48"/>
       <use x="63.623047" xlink:href="#DejaVuSans-46"/>
       <use x="95.410156" xlink:href="#DejaVuSans-48"/>
       <use x="159.033203" xlink:href="#DejaVuSans-54"/>
      </g>
     </g>
    </g>
    <g id="ytick_5">
     <g id="line2d_23">
      <path clip-path="url(#p6bb292c7eb)" d="M 73.198438 271.967233 
L 572.158437 271.967233 
" style="fill:none;stroke:#000000;stroke-linecap:square;stroke-opacity:0.1;stroke-width:0.5;"/>
     </g>
     <g id="line2d_24">
      <g>
       <use style="stroke:#000000;stroke-width:0.8;" x="73.198438" xlink:href="#m0a6ae03f04" y="271.967233"/>
      </g>
     </g>
     <g id="text_13">
      <!-- 0.08 -->
      <g transform="translate(32.8 277.666062)scale(0.15 -0.15)">
       <defs>
        <path d="M 31.78125 34.625 
Q 24.75 34.625 20.71875 30.859375 
Q 16.703125 27.09375 16.703125 20.515625 
Q 16.703125 13.921875 20.71875 10.15625 
Q 24.75 6.390625 31.78125 6.390625 
Q 38.8125 6.390625 42.859375 10.171875 
Q 46.921875 13.96875 46.921875 20.515625 
Q 46.921875 27.09375 42.890625 30.859375 
Q 38.875 34.625 31.78125 34.625 
z
M 21.921875 38.8125 
Q 15.578125 40.375 12.03125 44.71875 
Q 8.5 49.078125 8.5 55.328125 
Q 8.5 64.0625 14.71875 69.140625 
Q 20.953125 74.21875 31.78125 74.21875 
Q 42.671875 74.21875 48.875 69.140625 
Q 55.078125 64.0625 55.078125 55.328125 
Q 55.078125 49.078125 51.53125 44.71875 
Q 48 40.375 41.703125 38.8125 
Q 48.828125 37.15625 52.796875 32.3125 
Q 56.78125 27.484375 56.78125 20.515625 
Q 56.78125 9.90625 50.3125 4.234375 
Q 43.84375 -1.421875 31.78125 -1.421875 
Q 19.734375 -1.421875 13.25 4.234375 
Q 6.78125 9.90625 6.78125 20.515625 
Q 6.78125 27.484375 10.78125 32.3125 
Q 14.796875 37.15625 21.921875 38.8125 
z
M 18.3125 54.390625 
Q 18.3125 48.734375 21.84375 45.5625 
Q 25.390625 42.390625 31.78125 42.390625 
Q 38.140625 42.390625 41.71875 45.5625 
Q 45.3125 48.734375 45.3125 54.390625 
Q 45.3125 60.0625 41.71875 63.234375 
Q 38.140625 66.40625 31.78125 66.40625 
Q 25.390625 66.40625 21.84375 63.234375 
Q 18.3125 60.0625 18.3125 54.390625 
z
" id="DejaVuSans-56"/>
       </defs>
       <use xlink:href="#DejaVuSans-48"/>
       <use x="63.623047" xlink:href="#DejaVuSans-46"/>
       <use x="95.410156" xlink:href="#DejaVuSans-48"/>
       <use x="159.033203" xlink:href="#DejaVuSans-56"/>
      </g>
     </g>
    </g>
    <g id="ytick_6">
     <g id="line2d_25">
      <path clip-path="url(#p6bb292c7eb)" d="M 73.198438 213.419042 
L 572.158437 213.419042 
" style="fill:none;stroke:#000000;stroke-linecap:square;stroke-opacity:0.1;stroke-width:0.5;"/>
     </g>
     <g id="line2d_26">
      <g>
       <use style="stroke:#000000;stroke-width:0.8;" x="73.198438" xlink:href="#m0a6ae03f04" y="213.419042"/>
      </g>
     </g>
     <g id="text_14">
      <!-- 0.10 -->
      <g transform="translate(32.8 219.11787)scale(0.15 -0.15)">
       <use xlink:href="#DejaVuSans-48"/>
       <use x="63.623047" xlink:href="#DejaVuSans-46"/>
       <use x="95.410156" xlink:href="#DejaVuSans-49"/>
       <use x="159.033203" xlink:href="#DejaVuSans-48"/>
      </g>
     </g>
    </g>
    <g id="ytick_7">
     <g id="line2d_27">
      <path clip-path="url(#p6bb292c7eb)" d="M 73.198438 154.87085 
L 572.158437 154.87085 
" style="fill:none;stroke:#000000;stroke-linecap:square;stroke-opacity:0.1;stroke-width:0.5;"/>
     </g>
     <g id="line2d_28">
      <g>
       <use style="stroke:#000000;stroke-width:0.8;" x="73.198438" xlink:href="#m0a6ae03f04" y="154.87085"/>
      </g>
     </g>
     <g id="text_15">
      <!-- 0.12 -->
      <g transform="translate(32.8 160.569678)scale(0.15 -0.15)">
       <use xlink:href="#DejaVuSans-48"/>
       <use x="63.623047" xlink:href="#DejaVuSans-46"/>
       <use x="95.410156" xlink:href="#DejaVuSans-49"/>
       <use x="159.033203" xlink:href="#DejaVuSans-50"/>
      </g>
     </g>
    </g>
    <g id="ytick_8">
     <g id="line2d_29">
      <path clip-path="url(#p6bb292c7eb)" d="M 73.198438 96.322659 
L 572.158437 96.322659 
" style="fill:none;stroke:#000000;stroke-linecap:square;stroke-opacity:0.1;stroke-width:0.5;"/>
     </g>
     <g id="line2d_30">
      <g>
       <use style="stroke:#000000;stroke-width:0.8;" x="73.198438" xlink:href="#m0a6ae03f04" y="96.322659"/>
      </g>
     </g>
     <g id="text_16">
      <!-- 0.14 -->
      <g transform="translate(32.8 102.021487)scale(0.15 -0.15)">
       <use xlink:href="#DejaVuSans-48"/>
       <use x="63.623047" xlink:href="#DejaVuSans-46"/>
       <use x="95.410156" xlink:href="#DejaVuSans-49"/>
       <use x="159.033203" xlink:href="#DejaVuSans-52"/>
      </g>
     </g>
    </g>
    <g id="ytick_9">
     <g id="line2d_31">
      <path clip-path="url(#p6bb292c7eb)" d="M 73.198438 37.774467 
L 572.158437 37.774467 
" style="fill:none;stroke:#000000;stroke-linecap:square;stroke-opacity:0.1;stroke-width:0.5;"/>
     </g>
     <g id="line2d_32">
      <g>
       <use style="stroke:#000000;stroke-width:0.8;" x="73.198438" xlink:href="#m0a6ae03f04" y="37.774467"/>
      </g>
     </g>
     <g id="text_17">
      <!-- 0.16 -->
      <g transform="translate(32.8 43.473295)scale(0.15 -0.15)">
       <use xlink:href="#DejaVuSans-48"/>
       <use x="63.623047" xlink:href="#DejaVuSans-46"/>
       <use x="95.410156" xlink:href="#DejaVuSans-49"/>
       <use x="159.033203" xlink:href="#DejaVuSans-54"/>
      </g>
     </g>
    </g>
    <g id="text_18">
     <!-- Signal |M$_{xy}$| -->
     <g transform="translate(22.6 314.68)rotate(-90)scale(0.2 -0.2)">
      <defs>
       <path d="M 53.515625 70.515625 
L 53.515625 60.890625 
Q 47.90625 63.578125 42.921875 64.890625 
Q 37.9375 66.21875 33.296875 66.21875 
Q 25.25 66.21875 20.875 63.09375 
Q 16.5 59.96875 16.5 54.203125 
Q 16.5 49.359375 19.40625 46.890625 
Q 22.3125 44.4375 30.421875 42.921875 
L 36.375 41.703125 
Q 47.40625 39.59375 52.65625 34.296875 
Q 57.90625 29 57.90625 20.125 
Q 57.90625 9.515625 50.796875 4.046875 
Q 43.703125 -1.421875 29.984375 -1.421875 
Q 24.8125 -1.421875 18.96875 -0.25 
Q 13.140625 0.921875 6.890625 3.21875 
L 6.890625 13.375 
Q 12.890625 10.015625 18.65625 8.296875 
Q 24.421875 6.59375 29.984375 6.59375 
Q 38.421875 6.59375 43.015625 9.90625 
Q 47.609375 13.234375 47.609375 19.390625 
Q 47.609375 24.75 44.3125 27.78125 
Q 41.015625 30.8125 33.5 32.328125 
L 27.484375 33.5 
Q 16.453125 35.6875 11.515625 40.375 
Q 6.59375 45.0625 6.59375 53.421875 
Q 6.59375 63.09375 13.40625 68.65625 
Q 20.21875 74.21875 32.171875 74.21875 
Q 37.3125 74.21875 42.625 73.28125 
Q 47.953125 72.359375 53.515625 70.515625 
z
" id="DejaVuSans-83"/>
       <path d="M 9.421875 54.6875 
L 18.40625 54.6875 
L 18.40625 0 
L 9.421875 0 
z
M 9.421875 75.984375 
L 18.40625 75.984375 
L 18.40625 64.59375 
L 9.421875 64.59375 
z
" id="DejaVuSans-105"/>
       <path d="M 45.40625 27.984375 
Q 45.40625 37.75 41.375 43.109375 
Q 37.359375 48.484375 30.078125 48.484375 
Q 22.859375 48.484375 18.828125 43.109375 
Q 14.796875 37.75 14.796875 27.984375 
Q 14.796875 18.265625 18.828125 12.890625 
Q 22.859375 7.515625 30.078125 7.515625 
Q 37.359375 7.515625 41.375 12.890625 
Q 45.40625 18.265625 45.40625 27.984375 
z
M 54.390625 6.78125 
Q 54.390625 -7.171875 48.1875 -13.984375 
Q 42 -20.796875 29.203125 -20.796875 
Q 24.46875 -20.796875 20.265625 -20.09375 
Q 16.0625 -19.390625 12.109375 -17.921875 
L 12.109375 -9.1875 
Q 16.0625 -11.328125 19.921875 -12.34375 
Q 23.78125 -13.375 27.78125 -13.375 
Q 36.625 -13.375 41.015625 -8.765625 
Q 45.40625 -4.15625 45.40625 5.171875 
L 45.40625 9.625 
Q 42.625 4.78125 38.28125 2.390625 
Q 33.9375 0 27.875 0 
Q 17.828125 0 11.671875 7.65625 
Q 5.515625 15.328125 5.515625 27.984375 
Q 5.515625 40.671875 11.671875 48.328125 
Q 17.828125 56 27.875 56 
Q 33.9375 56 38.28125 53.609375 
Q 42.625 51.21875 45.40625 46.390625 
L 45.40625 54.6875 
L 54.390625 54.6875 
z
" id="DejaVuSans-103"/>
       <path d="M 9.421875 75.984375 
L 18.40625 75.984375 
L 18.40625 0 
L 9.421875 0 
z
" id="DejaVuSans-108"/>
       <path d="M 21 76.421875 
L 21 -23.578125 
L 12.703125 -23.578125 
L 12.703125 76.421875 
z
" id="DejaVuSans-124"/>
       <path d="M 9.8125 72.90625 
L 24.515625 72.90625 
L 43.109375 23.296875 
L 61.8125 72.90625 
L 76.515625 72.90625 
L 76.515625 0 
L 66.890625 0 
L 66.890625 64.015625 
L 48.09375 14.015625 
L 38.1875 14.015625 
L 19.390625 64.015625 
L 19.390625 0 
L 9.8125 0 
z
" id="DejaVuSans-77"/>
       <path d="M 60.015625 54.6875 
L 34.90625 27.875 
L 50.296875 0 
L 39.984375 0 
L 28.421875 21.6875 
L 8.296875 0 
L -2.59375 0 
L 24.3125 28.8125 
L 10.015625 54.6875 
L 20.3125 54.6875 
L 30.8125 34.90625 
L 49.125 54.6875 
z
" id="DejaVuSans-Oblique-120"/>
       <path d="M 24.8125 -5.078125 
Q 18.5625 -15.578125 14.625 -18.1875 
Q 10.6875 -20.796875 4.59375 -20.796875 
L -2.484375 -20.796875 
L -0.984375 -13.28125 
L 4.203125 -13.28125 
Q 7.953125 -13.28125 10.59375 -11.234375 
Q 13.234375 -9.1875 16.5 -3.21875 
L 19.28125 2 
L 7.171875 54.6875 
L 16.703125 54.6875 
L 25.78125 12.796875 
L 50.875 54.6875 
L 60.296875 54.6875 
z
" id="DejaVuSans-Oblique-121"/>
      </defs>
      <use transform="translate(0 0.578125)" xlink:href="#DejaVuSans-83"/>
      <use transform="translate(63.476562 0.578125)" xlink:href="#DejaVuSans-105"/>
      <use transform="translate(91.259766 0.578125)" xlink:href="#DejaVuSans-103"/>
      <use transform="translate(154.736328 0.578125)" xlink:href="#DejaVuSans-110"/>
      <use transform="translate(218.115234 0.578125)" xlink:href="#DejaVuSans-97"/>
      <use transform="translate(279.394531 0.578125)" xlink:href="#DejaVuSans-108"/>
      <use transform="translate(307.177734 0.578125)" xlink:href="#DejaVuSans-32"/>
      <use transform="translate(338.964844 0.578125)" xlink:href="#DejaVuSans-124"/>
      <use transform="translate(372.65625 0.578125)" xlink:href="#DejaVuSans-77"/>
      <use transform="translate(459.892578 -15.828125)scale(0.7)" xlink:href="#DejaVuSans-Oblique-120"/>
      <use transform="translate(501.318359 -15.828125)scale(0.7)" xlink:href="#DejaVuSans-Oblique-121"/>
      <use transform="translate(545.478516 0.578125)" xlink:href="#DejaVuSans-124"/>
     </g>
    </g>
   </g>
   <g id="line2d_33">
    <defs>
     <path d="M 0 2 
C 0.530406 2 1.03916 1.789267 1.414214 1.414214 
C 1.789267 1.03916 2 0.530406 2 0 
C 2 -0.530406 1.789267 -1.03916 1.414214 -1.414214 
C 1.03916 -1.789267 0.530406 -2 0 -2 
C -0.530406 -2 -1.03916 -1.789267 -1.414214 -1.414214 
C -1.789267 -1.03916 -2 -0.530406 -2 0 
C -2 0.530406 -1.789267 1.03916 -1.414214 1.414214 
C -1.03916 1.789267 -0.530406 2 0 2 
z
" id="m94454c19a9" style="stroke:#a6611a;"/>
    </defs>
    <g clip-path="url(#p6bb292c7eb)">
     <use style="fill:#a6611a;stroke:#a6611a;" x="95.878438" xlink:href="#m94454c19a9" y="56.380397"/>
     <use style="fill:#a6611a;stroke:#a6611a;" x="100.414438" xlink:href="#m94454c19a9" y="56.562649"/>
     <use style="fill:#a6611a;stroke:#a6611a;" x="104.950438" xlink:href="#m94454c19a9" y="57.404419"/>
     <use style="fill:#a6611a;stroke:#a6611a;" x="109.486438" xlink:href="#m94454c19a9" y="58.83866"/>
     <use style="fill:#a6611a;stroke:#a6611a;" x="114.022438" xlink:href="#m94454c19a9" y="60.901754"/>
     <use style="fill:#a6611a;stroke:#a6611a;" x="118.558438" xlink:href="#m94454c19a9" y="63.675271"/>
     <use style="fill:#a6611a;stroke:#a6611a;" x="123.094438" xlink:href="#m94454c19a9" y="67.34561"/>
     <use style="fill:#a6611a;stroke:#a6611a;" x="127.630438" xlink:href="#m94454c19a9" y="71.951854"/>
     <use style="fill:#a6611a;stroke:#a6611a;" x="132.166438" xlink:href="#m94454c19a9" y="77.619068"/>
     <use style="fill:#a6611a;stroke:#a6611a;" x="136.702438" xlink:href="#m94454c19a9" y="84.505118"/>
     <use style="fill:#a6611a;stroke:#a6611a;" x="141.238438" xlink:href="#m94454c19a9" y="92.866589"/>
     <use style="fill:#a6611a;stroke:#a6611a;" x="145.774438" xlink:href="#m94454c19a9" y="102.853146"/>
     <use style="fill:#a6611a;stroke:#a6611a;" x="150.310438" xlink:href="#m94454c19a9" y="114.720108"/>
     <use style="fill:#a6611a;stroke:#a6611a;" x="154.846438" xlink:href="#m94454c19a9" y="128.63193"/>
     <use style="fill:#a6611a;stroke:#a6611a;" x="159.382438" xlink:href="#m94454c19a9" y="144.923822"/>
     <use style="fill:#a6611a;stroke:#a6611a;" x="163.918438" xlink:href="#m94454c19a9" y="163.778081"/>
     <use style="fill:#a6611a;stroke:#a6611a;" x="168.454438" xlink:href="#m94454c19a9" y="185.462566"/>
     <use style="fill:#a6611a;stroke:#a6611a;" x="172.990438" xlink:href="#m94454c19a9" y="210.029449"/>
     <use style="fill:#a6611a;stroke:#a6611a;" x="177.526438" xlink:href="#m94454c19a9" y="237.615244"/>
     <use style="fill:#a6611a;stroke:#a6611a;" x="182.062438" xlink:href="#m94454c19a9" y="268.286627"/>
     <use style="fill:#a6611a;stroke:#a6611a;" x="186.598438" xlink:href="#m94454c19a9" y="301.895612"/>
     <use style="fill:#a6611a;stroke:#a6611a;" x="191.134438" xlink:href="#m94454c19a9" y="338.142734"/>
     <use style="fill:#a6611a;stroke:#a6611a;" x="195.670438" xlink:href="#m94454c19a9" y="376.377712"/>
     <use style="fill:#a6611a;stroke:#a6611a;" x="200.206438" xlink:href="#m94454c19a9" y="416.601834"/>
     <use style="fill:#a6611a;stroke:#a6611a;" x="204.742438" xlink:href="#m94454c19a9" y="457.249409"/>
     <use style="fill:#a6611a;stroke:#a6611a;" x="209.278438" xlink:href="#m94454c19a9" y="486.780004"/>
     <use style="fill:#a6611a;stroke:#a6611a;" x="213.814438" xlink:href="#m94454c19a9" y="460.735077"/>
     <use style="fill:#a6611a;stroke:#a6611a;" x="218.350438" xlink:href="#m94454c19a9" y="420.355648"/>
     <use style="fill:#a6611a;stroke:#a6611a;" x="222.886438" xlink:href="#m94454c19a9" y="379.966434"/>
     <use style="fill:#a6611a;stroke:#a6611a;" x="227.422438" xlink:href="#m94454c19a9" y="341.383921"/>
     <use style="fill:#a6611a;stroke:#a6611a;" x="231.958438" xlink:href="#m94454c19a9" y="304.917272"/>
     <use style="fill:#a6611a;stroke:#a6611a;" x="236.494438" xlink:href="#m94454c19a9" y="271.079819"/>
     <use style="fill:#a6611a;stroke:#a6611a;" x="241.030438" xlink:href="#m94454c19a9" y="240.145985"/>
     <use style="fill:#a6611a;stroke:#a6611a;" x="245.566438" xlink:href="#m94454c19a9" y="212.24319"/>
     <use style="fill:#a6611a;stroke:#a6611a;" x="250.102438" xlink:href="#m94454c19a9" y="187.373528"/>
     <use style="fill:#a6611a;stroke:#a6611a;" x="254.638438" xlink:href="#m94454c19a9" y="165.531656"/>
     <use style="fill:#a6611a;stroke:#a6611a;" x="259.174438" xlink:href="#m94454c19a9" y="146.424194"/>
     <use style="fill:#a6611a;stroke:#a6611a;" x="263.710438" xlink:href="#m94454c19a9" y="129.929242"/>
     <use style="fill:#a6611a;stroke:#a6611a;" x="268.246438" xlink:href="#m94454c19a9" y="115.756257"/>
     <use style="fill:#a6611a;stroke:#a6611a;" x="272.782438" xlink:href="#m94454c19a9" y="103.745735"/>
     <use style="fill:#a6611a;stroke:#a6611a;" x="277.318438" xlink:href="#m94454c19a9" y="93.628531"/>
     <use style="fill:#a6611a;stroke:#a6611a;" x="281.854438" xlink:href="#m94454c19a9" y="85.169304"/>
     <use style="fill:#a6611a;stroke:#a6611a;" x="286.390438" xlink:href="#m94454c19a9" y="78.0952"/>
     <use style="fill:#a6611a;stroke:#a6611a;" x="290.926438" xlink:href="#m94454c19a9" y="72.296466"/>
     <use style="fill:#a6611a;stroke:#a6611a;" x="295.462438" xlink:href="#m94454c19a9" y="67.643547"/>
     <use style="fill:#a6611a;stroke:#a6611a;" x="299.998438" xlink:href="#m94454c19a9" y="63.935301"/>
     <use style="fill:#a6611a;stroke:#a6611a;" x="304.534438" xlink:href="#m94454c19a9" y="60.991789"/>
     <use style="fill:#a6611a;stroke:#a6611a;" x="309.070438" xlink:href="#m94454c19a9" y="58.787274"/>
     <use style="fill:#a6611a;stroke:#a6611a;" x="313.606438" xlink:href="#m94454c19a9" y="57.286728"/>
     <use style="fill:#a6611a;stroke:#a6611a;" x="318.142438" xlink:href="#m94454c19a9" y="56.385545"/>
     <use style="fill:#a6611a;stroke:#a6611a;" x="322.678438" xlink:href="#m94454c19a9" y="55.983308"/>
     <use style="fill:#a6611a;stroke:#a6611a;" x="327.214438" xlink:href="#m94454c19a9" y="56.139431"/>
     <use style="fill:#a6611a;stroke:#a6611a;" x="331.750438" xlink:href="#m94454c19a9" y="56.910315"/>
     <use style="fill:#a6611a;stroke:#a6611a;" x="336.286438" xlink:href="#m94454c19a9" y="58.313672"/>
     <use style="fill:#a6611a;stroke:#a6611a;" x="340.822438" xlink:href="#m94454c19a9" y="60.321976"/>
     <use style="fill:#a6611a;stroke:#a6611a;" x="345.358438" xlink:href="#m94454c19a9" y="63.063257"/>
     <use style="fill:#a6611a;stroke:#a6611a;" x="349.894438" xlink:href="#m94454c19a9" y="66.701926"/>
     <use style="fill:#a6611a;stroke:#a6611a;" x="354.430438" xlink:href="#m94454c19a9" y="71.302936"/>
     <use style="fill:#a6611a;stroke:#a6611a;" x="358.966438" xlink:href="#m94454c19a9" y="76.959506"/>
     <use style="fill:#a6611a;stroke:#a6611a;" x="363.502438" xlink:href="#m94454c19a9" y="83.875655"/>
     <use style="fill:#a6611a;stroke:#a6611a;" x="368.038437" xlink:href="#m94454c19a9" y="92.307095"/>
     <use style="fill:#a6611a;stroke:#a6611a;" x="372.574438" xlink:href="#m94454c19a9" y="102.420898"/>
     <use style="fill:#a6611a;stroke:#a6611a;" x="377.110437" xlink:href="#m94454c19a9" y="114.455106"/>
     <use style="fill:#a6611a;stroke:#a6611a;" x="381.646438" xlink:href="#m94454c19a9" y="128.601831"/>
     <use style="fill:#a6611a;stroke:#a6611a;" x="386.182437" xlink:href="#m94454c19a9" y="145.197309"/>
     <use style="fill:#a6611a;stroke:#a6611a;" x="390.718438" xlink:href="#m94454c19a9" y="164.422724"/>
     <use style="fill:#a6611a;stroke:#a6611a;" x="395.254437" xlink:href="#m94454c19a9" y="186.555925"/>
     <use style="fill:#a6611a;stroke:#a6611a;" x="399.790437" xlink:href="#m94454c19a9" y="211.620794"/>
     <use style="fill:#a6611a;stroke:#a6611a;" x="404.326437" xlink:href="#m94454c19a9" y="239.775614"/>
     <use style="fill:#a6611a;stroke:#a6611a;" x="408.862437" xlink:href="#m94454c19a9" y="271.00058"/>
     <use style="fill:#a6611a;stroke:#a6611a;" x="413.398438" xlink:href="#m94454c19a9" y="305.191261"/>
     <use style="fill:#a6611a;stroke:#a6611a;" x="417.934438" xlink:href="#m94454c19a9" y="342.047441"/>
     <use style="fill:#a6611a;stroke:#a6611a;" x="422.470438" xlink:href="#m94454c19a9" y="380.835075"/>
     <use style="fill:#a6611a;stroke:#a6611a;" x="427.006438" xlink:href="#m94454c19a9" y="421.34926"/>
     <use style="fill:#a6611a;stroke:#a6611a;" x="431.542438" xlink:href="#m94454c19a9" y="461.815006"/>
     <use style="fill:#a6611a;stroke:#a6611a;" x="436.078438" xlink:href="#m94454c19a9" y="486.270937"/>
     <use style="fill:#a6611a;stroke:#a6611a;" x="440.614438" xlink:href="#m94454c19a9" y="454.212737"/>
     <use style="fill:#a6611a;stroke:#a6611a;" x="445.150438" xlink:href="#m94454c19a9" y="413.524316"/>
     <use style="fill:#a6611a;stroke:#a6611a;" x="449.686438" xlink:href="#m94454c19a9" y="373.143461"/>
     <use style="fill:#a6611a;stroke:#a6611a;" x="454.222438" xlink:href="#m94454c19a9" y="334.5016"/>
     <use style="fill:#a6611a;stroke:#a6611a;" x="458.758438" xlink:href="#m94454c19a9" y="298.203092"/>
     <use style="fill:#a6611a;stroke:#a6611a;" x="463.294437" xlink:href="#m94454c19a9" y="264.705888"/>
     <use style="fill:#a6611a;stroke:#a6611a;" x="467.830438" xlink:href="#m94454c19a9" y="234.135446"/>
     <use style="fill:#a6611a;stroke:#a6611a;" x="472.366437" xlink:href="#m94454c19a9" y="206.617308"/>
     <use style="fill:#a6611a;stroke:#a6611a;" x="476.902438" xlink:href="#m94454c19a9" y="182.040327"/>
     <use style="fill:#a6611a;stroke:#a6611a;" x="481.438438" xlink:href="#m94454c19a9" y="160.519598"/>
     <use style="fill:#a6611a;stroke:#a6611a;" x="485.974438" xlink:href="#m94454c19a9" y="141.733258"/>
     <use style="fill:#a6611a;stroke:#a6611a;" x="490.510437" xlink:href="#m94454c19a9" y="125.527148"/>
     <use style="fill:#a6611a;stroke:#a6611a;" x="495.046438" xlink:href="#m94454c19a9" y="111.63705"/>
     <use style="fill:#a6611a;stroke:#a6611a;" x="499.582437" xlink:href="#m94454c19a9" y="99.901826"/>
     <use style="fill:#a6611a;stroke:#a6611a;" x="504.118437" xlink:href="#m94454c19a9" y="89.96792"/>
     <use style="fill:#a6611a;stroke:#a6611a;" x="508.654437" xlink:href="#m94454c19a9" y="81.665295"/>
     <use style="fill:#a6611a;stroke:#a6611a;" x="513.190438" xlink:href="#m94454c19a9" y="74.694313"/>
     <use style="fill:#a6611a;stroke:#a6611a;" x="517.726437" xlink:href="#m94454c19a9" y="68.97676"/>
     <use style="fill:#a6611a;stroke:#a6611a;" x="522.262438" xlink:href="#m94454c19a9" y="64.341115"/>
     <use style="fill:#a6611a;stroke:#a6611a;" x="526.798437" xlink:href="#m94454c19a9" y="60.637231"/>
     <use style="fill:#a6611a;stroke:#a6611a;" x="531.334437" xlink:href="#m94454c19a9" y="57.693806"/>
     <use style="fill:#a6611a;stroke:#a6611a;" x="535.870437" xlink:href="#m94454c19a9" y="55.468963"/>
     <use style="fill:#a6611a;stroke:#a6611a;" x="540.406438" xlink:href="#m94454c19a9" y="53.928809"/>
     <use style="fill:#a6611a;stroke:#a6611a;" x="544.942437" xlink:href="#m94454c19a9" y="53.019119"/>
     <use style="fill:#a6611a;stroke:#a6611a;" x="549.478437" xlink:href="#m94454c19a9" y="52.56"/>
    </g>
   </g>
   <g id="patch_5">
    <path d="M 73.198438 506.16 
L 73.198438 7.2 
" style="fill:none;stroke:#000000;stroke-linecap:square;stroke-linejoin:miter;stroke-width:0.8;"/>
   </g>
   <g id="patch_6">
    <path d="M 572.158437 506.16 
L 572.158437 7.2 
" style="fill:none;stroke:#000000;stroke-linecap:square;stroke-linejoin:miter;stroke-width:0.8;"/>
   </g>
   <g id="patch_7">
    <path d="M 73.198438 506.16 
L 572.158437 506.16 
" style="fill:none;stroke:#000000;stroke-linecap:square;stroke-linejoin:miter;stroke-width:0.8;"/>
   </g>
   <g id="patch_8">
    <path d="M 73.198438 7.2 
L 572.158437 7.2 
" style="fill:none;stroke:#000000;stroke-linecap:square;stroke-linejoin:miter;stroke-width:0.8;"/>
   </g>
   <g id="legend_1">
    <g id="patch_9">
     <path d="M 260.945859 497.66 
L 384.411016 497.66 
Q 387.811016 497.66 387.811016 494.26 
L 387.811016 427.018094 
Q 387.811016 423.618094 384.411016 423.618094 
L 260.945859 423.618094 
Q 257.545859 423.618094 257.545859 427.018094 
L 257.545859 494.26 
Q 257.545859 497.66 260.945859 497.66 
z
" style="fill:#ffffff;opacity:0.8;stroke:#cccccc;stroke-linejoin:miter;"/>
    </g>
    <g id="line2d_34"/>
    <g id="line2d_35">
     <g>
      <use style="fill:#a6611a;stroke:#a6611a;" x="281.345859" xlink:href="#m94454c19a9" y="437.385438"/>
     </g>
    </g>
    <g id="text_19">
     <!-- signal -->
     <g transform="translate(311.945859 443.335438)scale(0.17 -0.17)">
      <use xlink:href="#DejaVuSans-115"/>
      <use x="52.099609" xlink:href="#DejaVuSans-105"/>
      <use x="79.882812" xlink:href="#DejaVuSans-103"/>
      <use x="143.359375" xlink:href="#DejaVuSans-110"/>
      <use x="206.738281" xlink:href="#DejaVuSans-97"/>
      <use x="268.017578" xlink:href="#DejaVuSans-108"/>
     </g>
    </g>
    <g id="patch_10">
     <path d="M 264.345859 479.574125 
L 298.345859 479.574125 
L 298.345859 467.674125 
L 264.345859 467.674125 
z
" style="fill:#80cdc1;"/>
    </g>
    <g id="text_20">
     <!-- banding -->
     <g transform="translate(311.945859 468.28825)scale(0.17 -0.17)">
      <defs>
       <path d="M 48.6875 27.296875 
Q 48.6875 37.203125 44.609375 42.84375 
Q 40.53125 48.484375 33.40625 48.484375 
Q 26.265625 48.484375 22.1875 42.84375 
Q 18.109375 37.203125 18.109375 27.296875 
Q 18.109375 17.390625 22.1875 11.75 
Q 26.265625 6.109375 33.40625 6.109375 
Q 40.53125 6.109375 44.609375 11.75 
Q 48.6875 17.390625 48.6875 27.296875 
z
M 18.109375 46.390625 
Q 20.953125 51.265625 25.265625 53.625 
Q 29.59375 56 35.59375 56 
Q 45.5625 56 51.78125 48.09375 
Q 58.015625 40.1875 58.015625 27.296875 
Q 58.015625 14.40625 51.78125 6.484375 
Q 45.5625 -1.421875 35.59375 -1.421875 
Q 29.59375 -1.421875 25.265625 0.953125 
Q 20.953125 3.328125 18.109375 8.203125 
L 18.109375 0 
L 9.078125 0 
L 9.078125 75.984375 
L 18.109375 75.984375 
z
" id="DejaVuSans-98"/>
      </defs>
      <use xlink:href="#DejaVuSans-98"/>
      <use x="63.476562" xlink:href="#DejaVuSans-97"/>
      <use x="124.755859" xlink:href="#DejaVuSans-110"/>
      <use x="188.134766" xlink:href="#DejaVuSans-100"/>
      <use x="251.611328" xlink:href="#DejaVuSans-105"/>
      <use x="279.394531" xlink:href="#DejaVuSans-110"/>
      <use x="342.773438" xlink:href="#DejaVuSans-103"/>
     </g>
     <!--  regions -->
     <g transform="translate(311.945859 487.324531)scale(0.17 -0.17)">
      <use xlink:href="#DejaVuSans-32"/>
      <use x="31.787109" xlink:href="#DejaVuSans-114"/>
      <use x="70.650391" xlink:href="#DejaVuSans-101"/>
      <use x="132.173828" xlink:href="#DejaVuSans-103"/>
      <use x="195.650391" xlink:href="#DejaVuSans-105"/>
      <use x="223.433594" xlink:href="#DejaVuSans-111"/>
      <use x="284.615234" xlink:href="#DejaVuSans-110"/>
      <use x="347.994141" xlink:href="#DejaVuSans-115"/>
     </g>
    </g>
   </g>
  </g>
 </g>
 <defs>
  <clipPath id="p6bb292c7eb">
   <rect height="498.96" width="498.96" x="73.198438" y="7.2"/>
  </clipPath>
 </defs>
</svg>
